<?xml version="1.0" encoding="UTF-8"?>
<svg id="Layer_1" xmlns="http://www.w3.org/2000/svg" version="1.1" viewBox="0 0 1920 654.26">
  <!-- Generator: Adobe Illustrator 29.7.1, SVG Export Plug-In . SVG Version: 2.1.1 Build 8)  -->
  <defs>
    <style>
      .st0 {
        fill: #6c6c6c;
      }

      .st1 {
        fill: #4cbb16;
      }

      .st2 {
        fill: #000780;
      }

      .st3 {
        fill: #161616;
      }
    </style>
  </defs>
  <g>
    <path class="st1" d="M650.13,180.9v169.55h-234.35v234.35h-169.55v-104.21c0-165.52,134.18-299.69,299.69-299.69h104.21Z"/>
    <rect class="st2" x="111.15" y="180.9" width="148.27" height="148.27"/>
    <rect class="st2" x="259.2" y="103.1" width="69.84" height="69.84"/>
    <rect class="st2" x="215.57" y="50.41" width="43.63" height="43.63"/>
  </g>
  <g>
    <path class="st3" d="M905.67,426.61c-16.23,0-28.2-2.73-35.96-8.21-2.79-1.95-5.1-4.64-6.88-7.98-3.18-5.97-4.77-14.15-4.77-24.53v-228.6h-56.63v231.74c0,13.14,1.4,24.76,4.25,34.82.39,1.46.81,2.89,1.33,4.28,4.06,12.2,10.42,21.94,19.05,29.17,16.39,13.76,38.68,20.61,66.92,20.61h60.33v-51.31h-47.64ZM867.57,214.96c-2.6,6.65-4.54,13.69-5.81,21.13h-3.7v-21.13h-101.06v47.64h196.3v-47.64h-85.74Z"/>
    <path class="st3" d="M1515.84,302.25v34.4h-56.6v-23.27c0-19.05-4.25-32.97-12.72-41.8-8.47-8.83-22.55-13.24-42.32-13.24-22.59,0-38.81,6.17-48.68,18.53-9.87,12.33-14.83,30.15-14.83,53.45v147.59h-57.12V214.96h52.38v70.91h3.7c2.47-14.47,7.4-27.42,14.8-38.88,7.43-11.49,17.39-20.57,29.92-27.26,12.49-6.69,27.78-10.06,45.76-10.06,20.09,0,36.51,4.22,49.2,12.69,12.72,8.47,21.97,19.76,27.78,33.88,5.84,14.12,8.73,29.47,8.73,46.02Z"/>
    <path class="st3" d="M1788.93,262.05c-8.66-16.23-21.87-29.01-39.69-38.36-17.82-9.35-40.66-14.02-68.54-14.02s-51.76,4.58-71.69,13.76c-19.93,9.18-35.18,21.61-45.76,37.32-10.58,15.67-15.87,33.59-15.87,53.68v2.14h56.6v-2.14c0-19.37,6-33.33,17.98-41.8,12.01-8.47,30.18-12.69,54.52-12.69s43.29,4.32,53.71,12.95c10.38,8.66,15.61,23.92,15.61,45.79v15.35l-119.59,12.69c-17.3,2.11-32.29,5.81-44.98,11.1-12.69,5.29-22.49,12.62-29.37,21.97-6.88,9.35-10.32,20.9-10.32,34.66,0,21.52,8.02,38.36,24.08,50.53,16.06,12.17,37.65,18.27,64.81,18.27,29.99,0,54.94-6.26,74.87-18.79,19.93-12.53,33.43-29.92,40.5-52.12h3.7v65.59h52.38v-159.8c0-21.16-4.32-39.85-12.95-56.08ZM1733.07,410.22c-8.44,10.94-20.09,18.95-34.92,24.05-14.8,5.13-32.26,7.69-52.38,7.69-16.23,0-28.14-2.56-35.7-7.69-7.59-5.1-11.39-12.95-11.39-23.53s3.6-17.56,10.84-21.97c7.24-4.41,18.27-7.5,33.07-9.25l103.2-11.59c0,17.26-4.25,31.35-12.72,42.29Z"/>
    <g>
      <path class="st0" d="M827.7,519.88h-70.7v-10.82h70.7v10.82ZM798.37,583.78h-11.93v-74.71h11.93v74.71Z"/>
      <path class="st0" d="M846.77,583.78h-12.04v-74.71h12.04v74.71ZM893.04,583.78h-11.93v-30.11c0-5.58-1.3-9.57-3.9-11.99-2.6-2.41-6.8-3.62-12.6-3.62-4.39,0-7.88.76-10.48,2.28-2.6,1.52-4.48,3.68-5.63,6.47-1.15,2.79-1.73,6.15-1.73,10.09l-2.34.11.56-11.71h2.45c.67-3.12,1.88-6.06,3.63-8.81,1.74-2.75,4.22-4.98,7.41-6.69,3.2-1.71,7.14-2.57,11.82-2.57,5.05,0,9.27,1.02,12.66,3.07,3.38,2.05,5.91,4.83,7.58,8.36,1.67,3.53,2.51,7.57,2.51,12.1v33.01Z"/>
      <path class="st0" d="M931.74,584.89c-6.02,0-11.3-1.11-15.83-3.35-4.54-2.23-8.05-5.5-10.54-9.81-2.49-4.31-3.74-9.52-3.74-15.61s1.24-10.85,3.74-15.17c2.49-4.31,5.97-7.67,10.43-10.09,4.46-2.41,9.7-3.62,15.72-3.62s10.76,1.02,15.11,3.07c4.35,2.05,7.73,5.02,10.15,8.92,2.41,3.9,3.62,8.68,3.62,14.33,0,.97-.04,1.88-.11,2.73-.07.86-.19,1.69-.33,2.51h-50.63v-6.69h42.71l-3.12,4.13c.07-.74.11-1.47.11-2.17v-2.17c0-5.13-1.47-8.94-4.4-11.43-2.94-2.49-7.38-3.74-13.33-3.74-6.62,0-11.34,1.52-14.16,4.57-2.83,3.05-4.24,7.44-4.24,13.16v2.9c0,5.8,1.41,10.22,4.24,13.27,2.83,3.05,7.58,4.57,14.27,4.57,5.8,0,9.98-.91,12.54-2.73,2.57-1.82,3.85-4.37,3.85-7.64v-.89h12.04v1c0,3.94-1.21,7.41-3.62,10.43-2.42,3.01-5.73,5.35-9.92,7.02-4.2,1.67-9.05,2.51-14.55,2.51Z"/>
      <path class="st0" d="M1000.54,583.78h-12.04v-74.71h12.04v74.71ZM1048.27,519.88h-56.09v-10.82h56.09v10.82ZM1046.6,551.55h-54.42v-10.71h54.42v10.71ZM1048.27,583.78h-56.09v-10.82h56.09v10.82Z"/>
      <path class="st0" d="M1066.78,583.78h-14.39l23.86-27.43v-.67l-23.86-27.32h14.61l18.4,20.96h.67l18.18-20.96h14.5l-23.86,27.1v.67l23.86,27.65h-14.61l-18.4-21.19h-.78l-18.18,21.19Z"/>
      <path class="st0" d="M1136.7,602.74h-12.04v-74.38h11.04v17.4l1,1.45v55.53ZM1159.89,584.89c-6.17,0-11.23-1.52-15.17-4.57-3.94-3.05-6.47-7.1-7.58-12.15h-2.57v-11.15h2.12c0,3.72.78,6.86,2.34,9.42,1.56,2.57,3.77,4.46,6.64,5.69,2.86,1.23,6.22,1.84,10.09,1.84s7.41-.57,10.2-1.73c2.79-1.15,4.92-3.03,6.41-5.63,1.49-2.6,2.23-6.09,2.23-10.48s-.74-7.99-2.23-10.59c-1.49-2.6-3.62-4.46-6.41-5.58-2.79-1.11-6.11-1.67-9.98-1.67-6.17,0-10.93,1.47-14.27,4.41-3.35,2.94-5.02,7.38-5.02,13.33h-2.12l-.78-12.27h2.9c1.11-5.13,3.62-9.16,7.53-12.1,3.9-2.94,9.09-4.4,15.56-4.4,5.72,0,10.59,1.21,14.61,3.62,4.02,2.42,7.06,5.78,9.14,10.09,2.08,4.31,3.12,9.37,3.12,15.17s-1.02,10.65-3.07,15c-2.04,4.35-5.06,7.73-9.03,10.15-3.98,2.42-8.87,3.62-14.66,3.62Z"/>
      <path class="st0" d="M1222.9,584.89c-6.02,0-11.3-1.11-15.83-3.35-4.54-2.23-8.05-5.5-10.54-9.81-2.49-4.31-3.74-9.52-3.74-15.61s1.24-10.85,3.74-15.17c2.49-4.31,5.97-7.67,10.43-10.09,4.46-2.41,9.7-3.62,15.72-3.62s10.76,1.02,15.11,3.07c4.35,2.05,7.73,5.02,10.15,8.92,2.41,3.9,3.62,8.68,3.62,14.33,0,.97-.04,1.88-.11,2.73-.07.86-.19,1.69-.33,2.51h-50.63v-6.69h42.71l-3.12,4.13c.07-.74.11-1.47.11-2.17v-2.17c0-5.13-1.47-8.94-4.4-11.43-2.94-2.49-7.38-3.74-13.33-3.74-6.62,0-11.34,1.52-14.16,4.57-2.83,3.05-4.24,7.44-4.24,13.16v2.9c0,5.8,1.41,10.22,4.24,13.27,2.83,3.05,7.58,4.57,14.27,4.57,5.8,0,9.98-.91,12.54-2.73,2.57-1.82,3.85-4.37,3.85-7.64v-.89h12.04v1c0,3.94-1.21,7.41-3.62,10.43-2.42,3.01-5.73,5.35-9.92,7.02-4.2,1.67-9.05,2.51-14.55,2.51Z"/>
      <path class="st0" d="M1272.63,583.78h-12.04v-55.42h11.04v15.72l1,.56v39.14ZM1272.63,552.67h-2.68v-9.37h2.46c.52-3.05,1.56-5.78,3.12-8.2,1.56-2.41,3.66-4.33,6.3-5.74,2.64-1.41,5.85-2.12,9.65-2.12,4.24,0,7.7.89,10.37,2.67,2.68,1.78,4.63,4.17,5.85,7.14,1.23,2.98,1.84,6.21,1.84,9.7v7.25h-11.93v-4.91c0-4.02-.89-6.95-2.68-8.81-1.78-1.86-4.76-2.79-8.92-2.79-4.76,0-8.18,1.3-10.26,3.9-2.08,2.6-3.12,6.36-3.12,11.26Z"/>
      <path class="st0" d="M1353.48,538.39h-41.37v-10.04h41.37v10.04ZM1353.48,583.78h-12.71c-5.95,0-10.65-1.45-14.11-4.35-3.46-2.9-5.19-7.69-5.19-14.38v-48.84h11.93v48.17c0,3.42.82,5.71,2.45,6.86,1.63,1.15,4.16,1.73,7.58,1.73h10.04v10.82Z"/>
      <path class="st0" d="M1392.17,583.78h-12.04v-74.71h38.81c5.65,0,10.54.86,14.66,2.57,4.13,1.71,7.28,4.2,9.48,7.47,2.19,3.27,3.29,7.25,3.29,11.93,0,4.16-.87,7.73-2.62,10.7-1.75,2.98-4.28,5.32-7.58,7.02-3.31,1.71-7.3,2.72-11.99,3.01v.78c2.9.74,5.15,1.95,6.75,3.63,1.6,1.67,3.07,3.7,4.4,6.08l12.49,21.52h-13.83l-11.93-20.63c-1.12-2.01-2.33-3.62-3.63-4.85-1.3-1.23-2.92-2.12-4.85-2.68-1.93-.56-4.5-.84-7.7-.84h-13.72v28.99ZM1392.17,519.88v25.65h26.65c4.98,0,8.73-.96,11.26-2.9,2.52-1.93,3.79-5.24,3.79-9.92s-1.27-7.81-3.79-9.81c-2.53-2.01-6.28-3.01-11.26-3.01h-26.65Z"/>
      <path class="st0" d="M1471.35,584.89c-5.73,0-10.28-1.28-13.66-3.85-3.38-2.57-5.07-6.11-5.07-10.65,0-2.9.72-5.33,2.17-7.31,1.45-1.97,3.51-3.51,6.19-4.63,2.67-1.11,5.83-1.89,9.48-2.34l26.32-2.79v7.14l-22.86,2.56c-3.12.37-5.45,1.02-6.97,1.95-1.52.93-2.28,2.47-2.28,4.63s.8,3.89,2.4,4.96c1.6,1.08,4.11,1.62,7.53,1.62,4.24,0,7.92-.54,11.04-1.62,3.12-1.08,5.58-2.77,7.36-5.07,1.78-2.3,2.68-5.28,2.68-8.92l1.56.22v9.14h-1.56c-1.49,4.68-4.33,8.35-8.53,10.98s-9.46,3.96-15.78,3.96ZM1507.48,583.78h-11.04v-14.27l-.78-.33v-18.96c0-4.61-1.1-7.82-3.29-9.65-2.2-1.82-5.97-2.73-11.32-2.73s-8.96.89-11.49,2.68c-2.53,1.78-3.79,4.72-3.79,8.81v.45h-11.93v-.45c0-4.24,1.11-8.01,3.35-11.32,2.23-3.31,5.44-5.93,9.65-7.86,4.2-1.93,9.24-2.9,15.11-2.9s10.69.99,14.44,2.96c3.75,1.97,6.54,4.67,8.36,8.08,1.82,3.42,2.73,7.36,2.73,11.82v33.68Z"/>
      <path class="st0" d="M1530.23,583.78h-12.04v-55.42h11.04v17.4l1,.56v37.47ZM1576.06,583.78h-12.04v-30.11c0-5.2-1.25-9.11-3.74-11.71-2.49-2.6-6.63-3.9-12.43-3.9s-10.46,1.54-13.33,4.63c-2.86,3.09-4.29,7.64-4.29,13.66l-2.12.11-.56-10.93h2.46c.59-3.12,1.8-6.08,3.62-8.87,1.82-2.79,4.35-5.05,7.58-6.8,3.23-1.74,7.19-2.62,11.88-2.62,5.13,0,9.4,1.04,12.82,3.12,3.42,2.08,5.97,4.87,7.64,8.36,1.67,3.5,2.51,7.4,2.51,11.71v33.34Z"/>
      <path class="st0" d="M1598.81,583.78h-12.04v-74.71h12.04v74.71ZM1645.2,583.78h-14.16l-16.39-22.64h-21.19v-10.82h21.19l16.62-21.97h14.05l-20.85,26.65,20.74,28.77Z"/>
      <path class="st0" d="M1663.26,521.89h-12.04v-12.82h12.04v12.82ZM1663.26,583.78h-12.04v-55.42h12.04v55.42Z"/>
      <path class="st0" d="M1686.46,583.78h-12.04v-55.42h11.04v17.4l1,.56v37.47ZM1732.29,583.78h-12.04v-30.11c0-5.2-1.25-9.11-3.74-11.71s-6.63-3.9-12.43-3.9-10.46,1.54-13.33,4.63c-2.86,3.09-4.29,7.64-4.29,13.66l-2.12.11-.56-10.93h2.46c.59-3.12,1.8-6.08,3.62-8.87,1.82-2.79,4.35-5.05,7.58-6.8,3.23-1.74,7.19-2.62,11.88-2.62,5.13,0,9.4,1.04,12.82,3.12,3.42,2.08,5.97,4.87,7.64,8.36,1.67,3.5,2.51,7.4,2.51,11.71v33.34Z"/>
      <path class="st0" d="M1767.08,578.76c-5.5,0-10.2-1.08-14.11-3.23-3.9-2.16-6.91-5.17-9.03-9.03-2.12-3.86-3.18-8.36-3.18-13.49s1.1-9.63,3.29-13.49c2.19-3.86,5.31-6.87,9.37-9.03,4.05-2.15,8.87-3.23,14.44-3.23s10.72,1.28,14.78,3.85c4.05,2.56,6.56,6.26,7.53,11.09h2.57l-.67,9.7h-2.12c0-3.12-.74-5.74-2.23-7.86-1.49-2.12-3.61-3.7-6.36-4.74-2.75-1.04-6.1-1.56-10.04-1.56s-7.08.48-9.87,1.45c-2.79.97-4.91,2.55-6.36,4.74-1.45,2.19-2.17,5.22-2.17,9.09s.71,6.8,2.12,9.03c1.41,2.23,3.48,3.85,6.19,4.85,2.71,1,5.97,1.51,9.76,1.51,6.09,0,10.78-1.26,14.05-3.79,3.27-2.53,4.91-6.24,4.91-11.15h2.12v10.93h-2.9c-.97,4.24-3.31,7.7-7.03,10.37-3.72,2.67-8.74,4.01-15.05,4.01ZM1772.1,603.85c-5.5,0-10.33-.84-14.5-2.51-4.16-1.67-7.41-4.07-9.76-7.19-2.34-3.12-3.51-6.91-3.51-11.37h11.93c0,2.68.56,4.83,1.67,6.47,1.11,1.63,2.88,2.8,5.3,3.51,2.42.7,5.59,1.06,9.54,1.06,4.24,0,7.6-.46,10.09-1.39,2.49-.93,4.29-2.55,5.41-4.85,1.11-2.3,1.67-5.5,1.67-9.59v-32.45l.89-.78v-16.39h11.04v48.95c0,6.17-1.23,11.21-3.68,15.11-2.45,3.9-5.91,6.78-10.37,8.64-4.46,1.86-9.7,2.79-15.72,2.79Z"/>
    </g>
    <path class="st3" d="M1257.87,329.26c0,4.58-.19,8.89-.52,12.95-.36,4.06-.91,8.05-1.59,11.91h-175.5v-31.74h123.64v-1.07c0-24.34-6.98-42.42-20.9-54.23-13.95-11.81-35.02-17.72-63.25-17.72-31.38,0-53.77,7.24-67.18,21.68-11.52,12.43-18.04,29.56-19.67,51.34-.29,3.57-.45,7.27-.45,11.1v13.76c0,2.37.13,4.61.23,6.88,1.04,24.14,7.63,42.87,19.89,56.08,13.4,14.47,35.96,21.71,67.73,21.71,27.52,0,47.35-4.32,59.52-12.98,12.17-8.63,18.24-20.7,18.24-36.22v-4.25h57.15v4.77c0,18.69-5.71,35.18-17.2,49.46-11.46,14.31-27.16,25.41-47.09,33.36-19.93,7.92-42.93,11.88-69.03,11.88-28.59,0-53.64-5.29-75.16-15.87-21.52-10.58-38.16-26.09-49.98-46.54-11.85-20.48-17.75-45.17-17.75-74.09s5.91-51.5,17.75-71.98c11.81-20.45,28.3-36.41,49.46-47.87,21.16-11.46,46.05-17.2,74.61-17.2s51.05,4.87,71.69,14.54c20.64,9.7,36.7,23.82,48.16,42.35,11.46,18.5,17.2,41.18,17.2,67.99Z"/>
  </g>
</svg>